{"asset":{"version":"2.0","generator":"VECTARY"},"nodes":[{"translation":[0,0,0],"scale":[0.09784954556414434,0.0997893192488263,0.0957851610273135],"rotation":[-0.7071067811865475,0,0,0.7071067811865476],"name":"tanica","children":[1]},{"translation":[0.16699805228591114,0.2039191677711694,0],"scale":[1,1,1],"rotation":[0,0,0,1],"name":"polymsh47","children":[2]},{"translation":[6.625585399746362,-0.2039191677711694,0],"scale":[1,1.0000000000000002,1.0000000000000002],"rotation":[0.7071067811865475,0,0,0.7071067811865476],"name":"Buffer Object","mesh":0}],"materials":[{"pbrMetallicRoughness":{"baseColorFactor":[0.6120655998656237,0.00010718736234124402,0.00010718736234124402,1],"metallicFactor":0,"roughnessFactor":0.2},"name":"Piccolo","emissiveFactor":[0,0,0],"extensions":{},"alphaMode":"OPAQUE","doubleSided":false}],"meshes":[{"primitives":[{"mode":4,"attributes":{"POSITION":1,"NORMAL":2},"material":0,"indices":0}]}],"accessors":[{"bufferView":0,"byteOffset":0,"componentType":5125,"count":20202,"type":"SCALAR"},{"bufferView":1,"byteOffset":0,"componentType":5126,"count":3825,"max":[-5.934393882751465,4.949272155761719,1.7042030096054077],"min":[-7.569591045379639,0.043678998947143555,-1.7042030096054077],"type":"VEC3"},{"bufferView":2,"byteOffset":0,"componentType":5126,"count":3825,"type":"VEC3"}],"bufferViews":[{"buffer":0,"byteOffset":0,"byteLength":80808,"target":34963},{"buffer":0,"byteOffset":80808,"byteLength":45900,"target":34962},{"buffer":0,"byteOffset":126708,"byteLength":45900,"target":34962}],"scene":0,"scenes":[{"nodes":[0],"name":"tanica"}],"extensionsUsed":["KHR_texture_transform"],"buffers":[{"byteLength":172608,"uri":"tanica.bin"}]}