{
  "asset": {
    "generator": "Marmoset Toolbag 3.07",
    "version": "2.0"
  },
  "buffers": [
    {
      "uri": "petrol_barrel.bin",
      "byteLength": 2553456
    }
  ],
  "bufferViews": [
    {
      "buffer": 0,
      "byteOffset": 67236,
      "byteLength": 44824,
      "target": 34962,
      "byteStride": 8
    },
    {
      "buffer": 0,
      "byteOffset": 112060,
      "byteLength": 67236,
      "target": 34962,
      "byteStride": 12
    },
    {
      "buffer": 0,
      "byteOffset": 179296,
      "byteLength": 89648,
      "target": 34962,
      "byteStride": 16
    },
    {
      "buffer": 0,
      "byteOffset": 0,
      "byteLength": 67236,
      "target": 34962,
      "byteStride": 12
    },
    {
      "buffer": 0,
      "byteOffset": 268944,
      "byteLength": 57480,
      "target": 34963
    }
  ],
  "accessors": [
    {
      "bufferView": 0,
      "byteOffset": 0,
      "componentType": 5126,
      "normalized": false,
      "count": 5603,
      "max": [
        0.8987259864807129,
        0.9900000095367432
      ],
      "min": [
        0.009999999776482582,
        0.009999999776482582
      ],
      "type": "VEC2"
    },
    {
      "bufferView": 1,
      "byteOffset": 0,
      "componentType": 5126,
      "normalized": false,
      "count": 5603,
      "max": [
        1,
        1,
        1
      ],
      "min": [
        -1,
        -1,
        -1
      ],
      "type": "VEC3"
    },
    {
      "bufferView": 2,
      "byteOffset": 0,
      "componentType": 5126,
      "normalized": false,
      "count": 5603,
      "max": [
        1,
        1,
        1,
        1
      ],
      "min": [
        -1,
        -1,
        -1,
        1
      ],
      "type": "VEC4"
    },
    {
      "bufferView": 3,
      "byteOffset": 0,
      "componentType": 5126,
      "normalized": false,
      "count": 5603,
      "max": [
        1.3658499717712402,
        2.115251064300537,
        1.3658499717712402
      ],
      "min": [
        -1.3658499717712402,
        -2.1012399196624756,
        -1.3658499717712402
      ],
      "type": "VEC3"
    },
    {
      "bufferView": 4,
      "byteOffset": 0,
      "componentType": 5123,
      "normalized": false,
      "count": 28740,
      "max": [
        5602
      ],
      "min": [
        0
      ],
      "type": "SCALAR"
    }
  ],
  "scene": 0,
  "scenes": [
    {
      "nodes": [
        0
      ],
      "name": "petrol_barrel"
    }
  ],
  "nodes": [
    {
      "name": "Cylinder_Cylinder.001",
      "matrix": [
        0.9997807145118713,
        0,
        0.02094193361699581,
        0,
        0,
        1,
        0,
        0,
        -0.02094193361699581,
        0,
        0.9997807145118713,
        0,
        0,
        0,
        0,
        1
      ],
      "mesh": 0
    }
  ],
  "meshes": [
    {
      "primitives": [
        {
          "attributes": {
            "TEXCOORD_0": 0,
            "NORMAL": 1,
            "TANGENT": 2,
            "POSITION": 3
          },
          "material": 0,
          "mode": 4,
          "indices": 4
        }
      ]
    }
  ],
  "materials": [
    {
      "pbrMetallicRoughness": {
        "baseColorFactor": [
          0.49019607843137253,
          0.7254901960784313,
          0.38823529411764707,
          1
        ],
        "metallicFactor": 1,
        "roughnessFactor": 1,
        "baseColorTexture": {
          "index": 0,
          "texCoord": 0
        },
        "metallicRoughnessTexture": {
          "index": 1,
          "texCoord": 0
        }
      },
      "emissiveFactor": [
        0,
        0,
        0
      ],
      "alphaMode": "OPAQUE",
      "doubleSided": false,
      "normalTexture": {
        "index": 2,
        "texCoord": 0,
        "scale": 1
      }
    }
  ],
  "textures": [
    {
      "sampler": 0,
      "source": 0
    },
    {
      "sampler": 1,
      "source": 1
    },
    {
      "sampler": 2,
      "source": 2
    }
  ],
  "samplers": [
    {
      "magFilter": 9729,
      "minFilter": 9987,
      "wrapS": 10497,
      "wrapT": 10497
    },
    {
      "magFilter": 9729,
      "minFilter": 9987,
      "wrapS": 10497,
      "wrapT": 10497
    },
    {
      "magFilter": 9729,
      "minFilter": 9987,
      "wrapS": 10497,
      "wrapT": 10497
    }
  ],
  "images": [
    {
      "uri": "base_1.png",
      "mimeType": "image/png"
    },
    {
      "uri": "metallicRoughness_1.png",
      "mimeType": "image/png"
    },
    {
      "uri": "normal_1.png",
      "mimeType": "image/png"
    }
  ]
}