{"asset":{"version":"2.0","generator":"VECTARY"},"nodes":[{"translation":[-1.3804624887606867,1.4210854715202004e-17,-0.12113574067005409],"scale":[1.000000020846743,1,1.000000020846743],"rotation":[-0.7071067811865475,0,0,0.7071067811865476],"name":"Cylinder_Cylinder.001","mesh":0}],"materials":[{"pbrMetallicRoughness":{"baseColorFactor":[0.49019607843137253,0.7254901960784313,0.38823529411764707,1],"baseColorTexture":{"index":0,"extensions":{"KHR_texture_transform":{"offset":[0,0],"scale":[1,1],"rotation":0}},"texCoord":0},"metallicRoughnessTexture":{"index":2,"extensions":{"KHR_texture_transform":{"offset":[0,0],"scale":[1,1],"rotation":0}},"texCoord":0},"metallicFactor":1,"roughnessFactor":1},"name":"Grand Avenue","normalTexture":{"index":1,"scale":1,"extensions":{"KHR_texture_transform":{"offset":[0,0],"scale":[1,1],"rotation":0}},"texCoord":0},"emissiveFactor":[0,0,0],"extensions":{},"alphaMode":"OPAQUE","doubleSided":false}],"textures":[{"sampler":0,"source":0},{"sampler":0,"source":1},{"sampler":0,"source":2}],"images":[{"uri":"base_1.jpg","mimeType":"image/jpeg"},{"uri":"normal_1.jpg","mimeType":"image/jpeg"},{"uri":"metallicRoughness_1.jpg","mimeType":"image/jpeg"}],"samplers":[{"wrapS":10497,"wrapT":10497}],"meshes":[{"primitives":[{"mode":4,"attributes":{"POSITION":1,"NORMAL":2,"TEXCOORD_0":3},"material":0,"indices":0}]}],"accessors":[{"bufferView":0,"byteOffset":0,"componentType":5125,"count":28740,"type":"SCALAR"},{"bufferView":1,"byteOffset":0,"componentType":5126,"count":5603,"max":[1.3617011308670044,1.3668382167816162,4.1394944190979],"min":[-1.3691259622573853,-1.3639874458312988,-0.07699775695800781],"type":"VEC3"},{"bufferView":2,"byteOffset":0,"componentType":5126,"count":5603,"type":"VEC3"},{"bufferView":3,"byteOffset":0,"componentType":5126,"count":5603,"type":"VEC2"}],"bufferViews":[{"buffer":0,"byteOffset":0,"byteLength":114960,"target":34963},{"buffer":0,"byteOffset":114960,"byteLength":67236,"target":34962},{"buffer":0,"byteOffset":182196,"byteLength":67236,"target":34962},{"buffer":0,"byteOffset":249432,"byteLength":44824,"target":34962}],"scene":0,"scenes":[{"nodes":[0],"name":"petrol_barrel"}],"extensionsUsed":["KHR_texture_transform"],"buffers":[{"byteLength":294256,"uri":"petrol_barrel.bin"}]}