<svg width="35" height="35" viewBox="0 0 35 35" fill="none" xmlns="http://www.w3.org/2000/svg">
<path d="M10.4271 28V25.9H16.9896V21.7H14.8021C13.2891 21.7 11.9996 21.1879 10.9335 20.1638C9.86676 19.1404 9.33337 17.9025 9.33337 16.45C9.33337 15.4 9.63416 14.433 10.2357 13.5489C10.8373 12.6655 11.6485 12.0225 12.6693 11.62C12.8334 10.3075 13.4306 9.2092 14.4609 8.3251C15.4905 7.4417 16.698 7 18.0834 7C19.4688 7 20.6763 7.4417 21.7059 8.3251C22.7362 9.2092 23.3334 10.3075 23.4974 11.62C24.5183 12.0225 25.3295 12.6655 25.931 13.5489C26.5326 14.433 26.8334 15.4 26.8334 16.45C26.8334 17.9025 26.3004 19.1404 25.2343 20.1638C24.1675 21.1879 22.8776 21.7 21.3646 21.7H19.1771V25.9H25.7396V28H10.4271ZM14.8021 19.6H21.3646C22.2761 19.6 23.0508 19.2937 23.6888 18.6812C24.3269 18.0687 24.6459 17.325 24.6459 16.45C24.6459 15.82 24.4592 15.2425 24.0859 14.7175C23.7118 14.1925 23.224 13.8075 22.6224 13.5625L21.474 13.09L21.3099 11.8825C21.2006 11.095 20.8407 10.4342 20.2304 9.9001C19.6194 9.3667 18.9037 9.1 18.0834 9.1C17.2631 9.1 16.5477 9.3667 15.9374 9.9001C15.3264 10.4342 14.9662 11.095 14.8568 11.8825L14.6927 13.09L13.5443 13.5625C12.9427 13.8075 12.4553 14.1925 12.082 14.7175C11.7079 15.2425 11.5209 15.82 11.5209 16.45C11.5209 17.325 11.8399 18.0687 12.4779 18.6812C13.1159 19.2937 13.8907 19.6 14.8021 19.6Z" fill="#1C1B1F"/>
<path d="M0 35H10.5V32.9583H5.90625H2.625V26.8333H0V30.9167V35Z" fill="black"/>
<path d="M35 35V26.8333H32.375V30.4062V32.9583H24.5V35H29.75H35Z" fill="black"/>
<path d="M35 0H24.5V2.33333H29.0938H32.375V9.33333H35V4.66667V0Z" fill="black"/>
<path d="M0 0V9.33333H2.625V5.25V2.33333H10.5V0H5.25H0Z" fill="black"/>
</svg>
