{"asset":{"version":"2.0","generator":"VECTARY"},"nodes":[{"translation":[0,0,0],"scale":[1,1,1],"rotation":[0,0,0,1],"name":"scene11"},{"translation":[0,0,0],"scale":[0.001,0.001,0.001],"rotation":[-0.7071067811865475,0,0,0.7071067811865476],"name":"paper_stack1","mesh":0}],"materials":[{"pbrMetallicRoughness":{"baseColorFactor":[1,1,1,1],"baseColorTexture":{"index":0,"extensions":{"KHR_texture_transform":{"offset":[0,0],"scale":[1,1],"rotation":0}},"texCoord":0},"metallicFactor":0,"roughnessFactor":0.2},"name":"Country Summer","emissiveFactor":[0,0,0],"extensions":{},"alphaMode":"OPAQUE","doubleSided":false}],"textures":[{"sampler":0,"source":0}],"images":[{"uri":"PaperStack_tex512.jpg","mimeType":"image/jpeg"}],"samplers":[{"wrapS":10497,"wrapT":10497}],"meshes":[{"primitives":[{"mode":4,"attributes":{"POSITION":1,"NORMAL":2,"TEXCOORD_0":3},"material":0,"indices":0}]}],"accessors":[{"bufferView":0,"byteOffset":0,"componentType":5125,"count":36,"type":"SCALAR"},{"bufferView":1,"byteOffset":0,"componentType":5126,"count":24,"max":[8.966560363769531,14.959799766540527,1.691789984703064],"min":[-8.966560363769531,-14.959799766540527,-0.004785940051078796],"type":"VEC3"},{"bufferView":2,"byteOffset":0,"componentType":5126,"count":24,"type":"VEC3"},{"bufferView":3,"byteOffset":0,"componentType":5126,"count":24,"type":"VEC2"}],"bufferViews":[{"buffer":0,"byteOffset":0,"byteLength":144,"target":34963},{"buffer":0,"byteOffset":144,"byteLength":288,"target":34962},{"buffer":0,"byteOffset":432,"byteLength":288,"target":34962},{"buffer":0,"byteOffset":720,"byteLength":192,"target":34962}],"scene":0,"scenes":[{"nodes":[0,1],"name":"stack1"}],"extensionsUsed":["KHR_texture_transform"],"buffers":[{"byteLength":912,"uri":"stack1.bin"}]}