{"asset":{"version":"2.0","generator":"VECTARY"},"nodes":[{"translation":[0,0,0],"scale":[0.001,0.001,0.001],"rotation":[-0.7071067811865475,0,0,0.7071067811865476],"name":"paper_stack3","mesh":0}],"materials":[{"pbrMetallicRoughness":{"baseColorFactor":[1,1,1,1],"baseColorTexture":{"index":0,"extensions":{"KHR_texture_transform":{"offset":[0,0],"scale":[1,1],"rotation":0}},"texCoord":0},"metallicFactor":0,"roughnessFactor":0.2},"name":"Spring","emissiveFactor":[0,0,0],"extensions":{},"alphaMode":"OPAQUE","doubleSided":false}],"textures":[{"sampler":0,"source":0}],"images":[{"uri":"PaperStack_tex512.jpg","mimeType":"image/jpeg"}],"samplers":[{"wrapS":10497,"wrapT":10497}],"meshes":[{"primitives":[{"mode":4,"attributes":{"POSITION":1,"NORMAL":2,"TEXCOORD_0":3},"material":0,"indices":0}]}],"accessors":[{"bufferView":0,"byteOffset":0,"componentType":5125,"count":798,"type":"SCALAR"},{"bufferView":1,"byteOffset":0,"componentType":5126,"count":522,"max":[9.60377025604248,15.109399795532227,16.223499298095703],"min":[-10.80090045928955,-15.053500175476074,-0.0007429150282405317],"type":"VEC3"},{"bufferView":2,"byteOffset":0,"componentType":5126,"count":522,"type":"VEC3"},{"bufferView":3,"byteOffset":0,"componentType":5126,"count":522,"type":"VEC2"}],"bufferViews":[{"buffer":0,"byteOffset":0,"byteLength":3192,"target":34963},{"buffer":0,"byteOffset":3192,"byteLength":6264,"target":34962},{"buffer":0,"byteOffset":9456,"byteLength":6264,"target":34962},{"buffer":0,"byteOffset":15720,"byteLength":4176,"target":34962}],"scene":0,"scenes":[{"nodes":[0],"name":"stack3"}],"extensionsUsed":["KHR_texture_transform"],"buffers":[{"byteLength":19896,"uri":"stack3.bin"}]}