<svg width="375" height="48" viewBox="0 0 375 48" fill="none" xmlns="http://www.w3.org/2000/svg">
<path d="M0 11.2L17.3924 20L33.6628 6.66667L39.2733 23.7333L46.5669 13.6L53.8605 23.7333L69.5698 11.2L85.2791 23.7333L98.7442 1.33333L104.355 21.6L109.965 13.6L115.576 21.6L124.552 6.66667L128.48 17.0667L142.506 13.6L146.994 21.6L163.826 4.8L166.631 20L177.291 11.2L185.706 20L192.439 13.6L197.488 20L213.198 4.8L220.491 17.0667L232.834 0V9.06667L236.201 17.0667L242.933 6.66667L246.299 21.6L258.642 6.66667V17.0667L267.058 1.33333L277.718 23.7333L283.89 9.06667L296.233 20L307.453 1.33333L316.991 20L333.823 9.06667L338.872 20L348.41 4.8L358.509 21.6L368.047 11.2L377.584 20L386 4.8V48H0V11.2Z" fill="#96BB7C"/>
</svg>
