<?xml version="1.0" encoding="utf-8"?>
<!-- Svg Vector Icons : http://www.onlinewebfonts.com/icon -->
<!DOCTYPE svg PUBLIC "-//W3C//DTD SVG 1.1//EN" "http://www.w3.org/Graphics/SVG/1.1/DTD/svg11.dtd">
<svg version="1.1" xmlns="http://www.w3.org/2000/svg" xmlns:xlink="http://www.w3.org/1999/xlink" x="0px" y="0px" viewBox="0 0 1000 1000" enable-background="new 0 0 1000 1000" xml:space="preserve">
<metadata> Svg Vector Icons : http://www.onlinewebfonts.com/icon </metadata>
<g><g><path d="M903.2,300.1c0-74.4-56.4-135.5-128.8-143c-20.3-54.8-72.9-93.9-134.7-93.9c-27.1,0-52.3,7.6-73.9,20.6C541.1,39.8,494.1,10,440.1,10c-71.6,0-130.8,52.4-141.8,120.9c-5.8-0.7-11.8-1.2-17.8-1.2c-79.4,0-143.8,64.4-143.8,143.8c0,3.9,0.3,7.7,0.6,11.5C97,310.5,70.2,355.4,70.2,406.5c0,45.2,20.9,85.6,53.6,111.9c-0.1,2.6-0.4,5.2-0.4,7.8c0,79.4,64.4,143.8,143.8,143.8c23.8,0,46.2-5.9,66-16.1c27.4,19.7,66.6,44.3,85.6,39.4c0,0,7.1,109.5,5.5,137.2c-2.9,52.9-18.8,111.8-29.9,159.4h172.9c0,0-25.5-106.2-26.6-141.7c-1.1-35.5,11.1-100.8,11.1-100.8l60-62c23.1,15.8,51,24.8,81.1,24.8c74.4,0,135.5-56.6,143-128.9c54.8-20.3,93.9-73,93.9-134.9c0-36.5-13.7-69.8-36.1-95.1C899.7,335.4,903.2,318.2,903.2,300.1z M366.4,630.2c11.5-11,21.2-23.9,28.6-38.1l28.2,59.2C423.2,651.2,407.9,658,366.4,630.2z M472,666.7c-14.6,2.7-39.5-42.3-57.2-78.9c19.6,10,41.7,15.7,65.2,15.7c6,0,12-0.5,17.8-1.2C493.3,631.6,485.3,664.3,472,666.7z M534.1,695.5c-33.8,9.4-13.6-60.6-3.9-101.1c7-2.6,13.8-5.7,20.2-9.3c3.9,29.5,16.7,56.2,35.7,77.3C569.7,677,550.7,690.9,534.1,695.5z"/></g><g></g><g></g><g></g><g></g><g></g><g></g><g></g><g></g><g></g><g></g><g></g><g></g><g></g><g></g><g></g></g>
</svg>