{"asset":{"version":"2.0","generator":"VECTARY"},"nodes":[{"translation":[0,0,0],"scale":[0.001,0.001,0.001],"rotation":[-0.7071067811865475,0,0,0.7071067811865476],"name":"paper_stack2","mesh":0}],"materials":[{"pbrMetallicRoughness":{"baseColorFactor":[1,1,1,1],"baseColorTexture":{"index":0,"extensions":{"KHR_texture_transform":{"offset":[0,0],"scale":[1,1],"rotation":0}},"texCoord":0},"metallicFactor":0,"roughnessFactor":0.2},"name":"Herbal Scent","emissiveFactor":[0,0,0],"extensions":{},"alphaMode":"OPAQUE","doubleSided":false}],"textures":[{"sampler":0,"source":0}],"images":[{"uri":"PaperStack_tex512.jpg","mimeType":"image/jpeg"}],"samplers":[{"wrapS":10497,"wrapT":10497}],"meshes":[{"primitives":[{"mode":4,"attributes":{"POSITION":1,"NORMAL":2,"TEXCOORD_0":3},"material":0,"indices":0}]}],"accessors":[{"bufferView":0,"byteOffset":0,"componentType":5125,"count":192,"type":"SCALAR"},{"bufferView":1,"byteOffset":0,"componentType":5126,"count":132,"max":[9.125120162963867,15.065899848937988,4.359729766845703],"min":[-9.138070106506348,-15.206100463867188,-0.0009790320182219148],"type":"VEC3"},{"bufferView":2,"byteOffset":0,"componentType":5126,"count":132,"type":"VEC3"},{"bufferView":3,"byteOffset":0,"componentType":5126,"count":132,"type":"VEC2"}],"bufferViews":[{"buffer":0,"byteOffset":0,"byteLength":768,"target":34963},{"buffer":0,"byteOffset":768,"byteLength":1584,"target":34962},{"buffer":0,"byteOffset":2352,"byteLength":1584,"target":34962},{"buffer":0,"byteOffset":3936,"byteLength":1056,"target":34962}],"scene":0,"scenes":[{"nodes":[0],"name":"stack2"}],"extensionsUsed":["KHR_texture_transform"],"buffers":[{"byteLength":4992,"uri":"stack2.bin"}]}