{
  "asset": {
    "generator": "gltfeditor.com",
    "version": "2.0"
  },
  "buffers": [
    {
      "uri": "A4_Lined_Paper.bin",
      "byteLength": 1232
    }
  ],
  "bufferViews": [
    {
      "buffer": 0,
      "byteOffset": 76,
      "byteLength": 1152,
      "target": 34962,
      "byteStride": 32
    },
    {
      "buffer": 0,
      "byteOffset": 0,
      "byteLength": 72,
      "target": 34963
    }
  ],
  "accessors": [
    {
      "bufferView": 0,
      "byteOffset": 0,
      "componentType": 5126,
      "normalized": false,
      "count": 34,
      "max": [
        10.5,
        0.05000000074505806,
        14.850000381469727
      ],
      "min": [
        -10.5,
        -0.05000000074505806,
        -14.850000381469727
      ],
      "type": "VEC3"
    },
    {
      "bufferView": 0,
      "byteOffset": 12,
      "componentType": 5126,
      "normalized": false,
      "count": 34,
      "max": [
        0.004762020893394947,
        0.9999874234199524,
        0.003367014927789569
      ],
      "min": [
        -0.004762020893394947,
        -0.9999874234199524,
        -0.003367014927789569
      ],
      "type": "VEC3"
    },
    {
      "bufferView": 0,
      "byteOffset": 24,
      "componentType": 5126,
      "normalized": false,
      "count": 34,
      "max": [
        1,
        0
      ],
      "min": [
        0,
        -1
      ],
      "type": "VEC2"
    },
    {
      "bufferView": 1,
      "byteOffset": 0,
      "componentType": 5123,
      "normalized": false,
      "count": 36,
      "max": [
        33
      ],
      "min": [
        0
      ],
      "type": "SCALAR"
    }
  ],
  "scene": 0,
  "scenes": [
    {
      "nodes": [
        2
      ],
      "name": "A4_Lined_Paper"
    }
  ],
  "nodes": [
    {
      "name": "A4_Lined_Paper",
      "mesh": 0
    },
    {
      "name": "Geom",
      "children": [
        0
      ]
    },
    {
      "name": "A4_Lined_Paper_OBJ",
      "children": [
        1
      ]
    }
  ],
  "meshes": [
    {
      "primitives": [
        {
          "attributes": {
            "POSITION": 0,
            "NORMAL": 1,
            "TEXCOORD_0": 2
          },
          "material": 0,
          "mode": 4,
          "indices": 3
        }
      ]
    }
  ],
  "materials": [
    {
      "pbrMetallicRoughness": {
        "baseColorFactor": [
          1,
          1,
          1,
          1
        ],
        "baseColorTexture": {
          "index": 0,
          "texCoord": 0
        }
      },
      "emissiveFactor": [
        0,
        0,
        0
      ],
      "alphaMode": "OPAQUE",
      "doubleSided": false,
      "extensions": {
        "KHR_materials_unlit": {}
      }
    }
  ],
  "textures": [
    {
      "sampler": 0,
      "source": 0
    }
  ],
  "samplers": [
    {
      "magFilter": 9729,
      "minFilter": 9729,
      "wrapS": 10497,
      "wrapT": 33648
    }
  ],
  "images": [
    {
      "uri": "base_1.png",
      "mimeType": "image/png"
    }
  ],
  "extensionsUsed": [
    "KHR_materials_unlit"
  ],
  "extensionsRequired": [
    "KHR_materials_unlit"
  ]
}