# Apple ModelIO OBJ File: A4_Lined_Paper_OBJ
mtllib A4_Lined_Paper_OBJ.mtl
g 
v 10.5 -0.05 14.85
v 10.5 0.05 14.85
v -10.5 0.05 14.85
v -10.5 -0.05 14.85
v 10.5 0.05 -14.85
v -10.5 0.05 -14.85
v 10.5 -0.05 -14.85
v -10.5 -0.05 -14.85
vn 0.004762 -0.999983 0.003367
vn 0.004762 0.999983 0.003367
vn -0.004762 0.999983 0.003367
vn -0.004762 -0.999983 0.003367
vn 0.004762 0.999983 -0.003367
vn -0.004762 0.999983 -0.003367
vn 0.004762 -0.999983 -0.003367
vn -0.004762 -0.999983 -0.003367
vt 0 1
vt 1 1
vt 0 0
vt 1 0
usemtl material_1
f 1/1/1 2/1/2 3/2/3 4/2/4 
f 2/1/2 5/3/5 6/4/6 3/2/3 
f 5/3/5 7/3/7 8/4/8 6/4/6 
f 7/4/7 1/2/1 4/1/4 8/3/8 
f 5/3/5 2/1/2 1/1/1 7/3/7 
f 3/2/3 6/4/6 8/4/8 4/2/4 
s off
