{
    "asset": {
        "version": "2.0",
        "generator": "Open Asset Import Library (assimp v3.1.202510665)"
    },
    "accessors": [
        {
            "bufferView": 0,
            "byteOffset": 0,
            "componentType": 5126,
            "count": 12,
            "type": "VEC3",
            "max": [
                10.5,
                0.05000000074505806,
                14.84999942779541
            ],
            "min": [
                -10.5,
                -0.05000000074505806,
                -14.84999942779541
            ]
        },
        {
            "bufferView": 1,
            "byteOffset": 0,
            "componentType": 5126,
            "count": 12,
            "type": "VEC3",
            "max": [
                0.004761999938637018,
                0.9999829530715942,
                0.003367000026628375
            ],
            "min": [
                -0.004761999938637018,
                -0.9999829530715942,
                -0.003367000026628375
            ]
        },
        {
            "bufferView": 2,
            "byteOffset": 0,
            "componentType": 5126,
            "count": 12,
            "type": "VEC2",
            "max": [
                1.0,
                1.0
            ],
            "min": [
                0.0,
                0.0
            ]
        },
        {
            "bufferView": 3,
            "byteOffset": 0,
            "componentType": 5123,
            "count": 36,
            "type": "SCALAR",
            "max": [
                11.0
            ],
            "min": [
                0.0
            ]
        }
    ],
    "buffers": [
        {
            "byteLength": 456,
            "uri": "A4_Lined_Paper_GLTF.bin"
        }
    ],
    "bufferViews": [
        {
            "buffer": 0,
            "byteOffset": 0,
            "byteLength": 144,
            "target": 34962
        },
        {
            "buffer": 0,
            "byteOffset": 144,
            "byteLength": 144,
            "target": 34962
        },
        {
            "buffer": 0,
            "byteOffset": 288,
            "byteLength": 96,
            "target": 34962
        },
        {
            "buffer": 0,
            "byteOffset": 384,
            "byteLength": 72,
            "target": 34963
        }
    ],
    "images": [
        {
            "uri": "Lined_Paper.png"
        }
    ],
    "materials": [
        {
            "name": "lambert2SG",
            "pbrMetallicRoughness": {
                "baseColorTexture": {
                    "index": 0
                },
                "baseColorFactor": [
                    0.0,
                    0.0,
                    0.0,
                    1.0
                ],
                "metallicFactor": 0.0
            }
        }
    ],
    "meshes": [
        {
            "name": "A4_Lined_Paper",
            "primitives": [
                {
                    "mode": 4,
                    "material": 0,
                    "indices": 3,
                    "attributes": {
                        "POSITION": 0,
                        "NORMAL": 1,
                        "TEXCOORD_0": 2
                    }
                }
            ]
        }
    ],
    "nodes": [
        {
            "name": "A4_Lined_Paper.obj",
            "children": [
                1,
                2
            ]
        },
        {
            "name": "default"
        },
        {
            "name": "A4_Lined_Paper",
            "mesh": 0
        }
    ],
    "samplers": [
        {}
    ],
    "scenes": [
        {
            "nodes": [
                0
            ]
        }
    ],
    "textures": [
        {
            "source": 0,
            "sampler": 0
        }
    ],
    "scene": 0
}